Coordinates
version=1
nRows=29
nColumns=24
inDegrees=yes

Units are S.I. units (second, meters, Newtons, ...)
Angles are in degrees.

endheader
time	pelvis_tilt	pelvis_list	pelvis_rotation	pelvis_tx	pelvis_ty	pelvis_tz	hip_flexion_r	hip_adduction_r	hip_rotation_r	knee_angle_r	ankle_angle_r	subtalar_angle_r	mtp_angle_r	hip_flexion_l	hip_adduction_l	hip_rotation_l	knee_angle_l	ankle_angle_l	subtalar_angle_l	mtp_angle_l	lumbar_extension	lumbar_bending	lumbar_rotation
      0.46200000	     -0.80253210	      5.01737842	      1.39342024	     -0.77635500	      0.97986928	      0.27800628	     29.00525275	     -3.26383976	     -2.53779028	    -17.64705068	      8.90339083	     -4.04817341	      0.59106233	    -14.49676022	      8.96183847	      2.45644003	     -5.26963739	     11.33634290	     -3.86575030	      0.18847531	     -1.81673938	     -2.52632982	     -0.91991459
      0.46616667	     -0.81725296	      5.00667945	      1.42906046	     -0.77057472	      0.97924605	      0.27825029	     28.89927528	     -3.21785079	     -2.64630609	    -17.49206682	      8.68699232	     -4.11752060	      0.68047553	    -14.50829533	      8.92136393	      2.50346537	     -5.91951341	     11.43068133	     -3.85796816	      0.18021566	     -1.77687157	     -2.49786256	     -0.94211457
      0.47033333	     -0.83178682	      4.96297131	      1.44614776	     -0.76477413	      0.97864791	      0.27861108	     28.77018656	     -3.10699090	     -2.64018110	    -17.37282231	      8.50140459	     -4.36828736	      1.27431591	    -14.41984759	      8.82782239	      2.27269783	     -6.76288964	     11.67977597	     -3.37886058	      0.18313757	     -1.74197242	     -2.45819408	     -1.02099564
      0.47450000	     -0.88302814	      4.94000600	      1.45796771	     -0.75892881	      0.97803359	      0.27890125	     28.70360341	     -3.03430499	     -2.68882801	    -17.36810823	      8.18731299	     -4.48041417	      1.61980540	    -14.29218630	      8.77351458	      2.14516922	     -7.59866991	     11.75665473	     -3.18674295	      0.22976178	     -1.65060399	     -2.41866121	     -1.12572184
      0.47866667	     -0.87250157	      4.92141734	      1.48703602	     -0.75305986	      0.97756760	      0.27913985	     28.56083072	     -2.98331314	     -2.77233407	    -17.42413576	      7.89284990	     -4.53558913	      1.71045719	    -14.24029688	      8.72833069	      2.19702595	     -8.42180353	     11.79941302	     -3.19921399	      0.25648394	     -1.63446109	     -2.37564208	     -1.10891050
      0.48283333	     -0.91519669	      4.87699038	      1.48983334	     -0.74716486	      0.97705344	      0.27950076	     28.46252316	     -2.87158390	     -2.72874226	    -17.51524471	      7.59199663	     -4.79879378	      2.01746174	    -14.02171675	      8.63885230	      1.95517138	     -9.44408620	     11.88591444	     -2.80957701	      0.38473543	     -1.55004913	     -2.32297810	     -1.19340069
      0.48700000	     -0.91762206	      4.84349705	      1.51355138	     -0.74124868	      0.97664723	      0.27974690	     28.33184787	     -2.80453174	     -2.78407857	    -17.69096071	      7.23632588	     -4.88930452	      2.12193315	    -13.87854943	      8.58058529	      1.98358840	    -10.41134627	     11.87032985	     -2.82098321	      0.44627508	     -1.52633514	     -2.25917981	     -1.17292694
      0.49116667	     -0.91860807	      4.77531082	      1.52351335	     -0.73529796	      0.97630033	      0.28011736	     28.16387095	     -2.66876543	     -2.71089891	    -17.85294880	      6.93274116	     -5.30052310	      2.67304985	    -13.63886314	      8.45612040	      1.73405175	    -11.55854840	     11.92732806	     -2.40169397	      0.83693871	     -1.48176134	     -2.17450588	     -1.20112335
      0.49533333	     -0.94917312	      4.75110327	      1.51462776	     -0.72933236	      0.97592053	      0.28040178	     28.07759084	     -2.59997310	     -2.71429075	    -18.14304951	      6.52553165	     -5.34879281	      2.77535185	    -13.39152856	      8.41616960	      1.70628105	    -12.65011310	     11.75342549	     -2.45034876	      0.93066777	     -1.40828182	     -2.11819274	     -1.19158487
      0.49950000	     -1.00380758	      4.70024911	      1.49918315	     -0.72338742	      0.97554411	      0.28080316	     27.99699265	     -2.47327898	     -2.58710119	    -18.43759823	      6.24797136	     -5.71898634	      3.09399025	    -13.00856135	      8.31642483	      1.43576860	    -13.94536912	     11.68309435	     -2.10183396	      1.28537142	     -1.29764105	     -2.05471398	     -1.22017269
      0.50366667	     -1.01999350	      4.63229863	      1.48838053	     -0.71741093	      0.97527297	      0.28117553	     27.86765132	     -2.34198839	     -2.50548964	    -18.74698742	      5.86884163	     -6.00758524	      3.43709411	    -12.64916721	      8.20343536	      1.24773831	    -15.26589073	     11.52358990	     -1.90115821	      1.74979208	     -1.23557736	     -1.95989807	     -1.19208297
      0.50783333	     -1.03717195	      4.56206843	      1.47478270	     -0.71144395	      0.97502144	      0.28155243	     27.75147508	     -2.20942206	     -2.42112139	    -19.10834188	      5.54573360	     -6.30535693	      3.79491743	    -12.24222977	      8.08513302	      1.04679337	    -16.66568706	     11.30374078	     -1.71734129	      2.34124289	     -1.17537724	     -1.85890667	     -1.15803698
      0.51200000	     -1.05565495	      4.47862441	      1.47309653	     -0.70543159	      0.97484769	      0.28190314	     27.61337507	     -2.07374530	     -2.35487213	    -19.44413474	      5.16239740	     -6.59801791	      6.19661205	    -11.81880349	      7.95662162	      0.91435386	    -18.06565439	     10.83319527	     -1.77237744	      7.20240442	     -1.10237365	     -1.74029085	     -1.07452854
      0.51616667	     -1.07084879	      4.38497058	      1.46028963	     -0.69947918	      0.97466475	      0.28230583	     27.50080339	     -1.92260884	     -2.28876775	    -19.85345691	      4.88566231	     -6.78925182	      6.19738104	    -11.31171488	      7.80067597	      0.67516481	    -19.63403938	     10.50747489	     -1.56153873	      7.29116103	     -1.04767567	     -1.61232811	     -1.05092097
      0.52033333	     -1.10175139	      4.28080556	      1.43878104	     -0.69353282	      0.97448980	      0.28274083	     27.40186071	     -1.75047844	     -2.17992196	    -20.26696116	      4.61491142	     -7.06659396	      6.19403804	    -10.74534622	      7.62967699	      0.42351922	    -21.25980232	     10.08416131	     -1.39878472	      7.44903590	     -0.96914594	     -1.47476547	     -0.98050272
      0.52450000	     -1.10448906	      4.12850249	      1.42120313	     -0.68758166	      0.97440372	      0.28321979	     27.24687657	     -1.51955270	     -2.04036146	    -20.64817082	      4.42120281	     -7.46820548	      6.18206092	    -10.15768865	      7.38701177	      0.12699369	    -22.96187763	      9.57035424	     -1.16262070	      7.80600563	     -0.92275536	     -1.28418738	     -0.89703190
      0.52866667	     -1.11089844	      3.95406491	      1.36666079	     -0.68166294	      0.97430668	      0.28376913	     27.09958571	     -1.24256693	     -1.84248911	    -21.02905375	      4.20416010	     -7.87389764	      6.13707944	     -9.51673605	      7.11634122	     -0.22716592	    -24.73693924	      9.01543973	     -1.00665313	      8.65087517	     -0.87684548	     -1.06360905	     -0.80517677
      0.53283333	     -1.15006805	      3.82373042	      1.37083087	     -0.67580033	      0.97417612	      0.28421168	     27.02704084	     -1.06256788	     -1.79527645	    -21.50808334	      4.09685887	     -8.08857901	      6.09795787	     -8.79607707	      6.88651828	     -0.47199925	    -26.57154774	      8.33238572	     -0.82785871	      9.20279415	     -0.79772840	     -0.91064250	     -0.70031457
      0.53700000	     -1.14752559	      3.62632874	      1.33251477	     -0.66992632	      0.97414291	      0.28474151	     26.87382267	     -0.78011430	     -1.66568675	    -21.90888008	      3.94848774	     -8.33789493	      5.66767154	     -8.08724977	      6.57787894	     -0.78085870	    -28.43093666	      7.52029583	     -0.87108744	     13.65611530	     -0.76835389	     -0.66976572	     -0.59334866
      0.54116667	     -1.16151845	      3.43429074	      1.28952896	     -0.66408952	      0.97405807	      0.28528684	     26.75499661	     -0.50814757	     -1.56240367	    -22.34329411	      3.90293796	     -8.45246725	      5.66150828	     -7.31113932	      6.25729421	     -1.12834631	    -30.37238171	      6.70780660	     -0.74041157	     13.70520178	     -0.70881711	     -0.44024079	     -0.49661075
      0.54533333	     -1.16493626	      3.20975930	      1.24704121	     -0.65829894	      0.97401829	      0.28585483	     26.61775668	     -0.19528201	     -1.44211784	    -22.76876637	      3.87669571	     -8.74594732	      5.63930066	     -6.50850825	      5.89123959	     -1.46365937	    -32.35133981	      5.84637761	     -0.62635976	     13.81308963	     -0.68393890	     -0.16281567	     -0.37624161
      0.54950000	     -1.13731284	      2.95441332	      1.21463066	     -0.65250686	      0.97405329	      0.28643817	     26.41227235	      0.14875214	     -1.33124952	    -23.12826436	      3.90798691	     -8.98459681	      5.60889371	     -5.71313200	      5.47473878	     -1.79237999	    -34.35615799	      4.89518679	     -0.56676829	     13.94454383	     -0.68197119	      0.12815959	     -0.25451314
      0.55366667	     -1.12449560	      2.68413452	      1.16836909	     -0.64677800	      0.97404720	      0.28703349	     26.24420305	      0.51261206	     -1.22461722	    -23.52892502	      3.95925037	     -9.27365945	      5.56143392	     -4.87038109	      5.03662790	     -2.11739927	    -36.38782581	      3.90284359	     -0.50444924	     14.11805414	     -0.68458778	      0.45738659	     -0.12360728
      0.55783333	     -1.10765754	      2.40789555	      1.12494774	     -0.64107268	      0.97406882	      0.28763740	     26.05236084	      0.88184585	     -1.12454933	    -23.88943041	      4.06226502	     -9.50749628	      5.50451271	     -4.00934236	      4.58190548	     -2.42886784	    -38.42596677	      2.84891172	     -0.50069226	     14.29671897	     -0.68728198	      0.78275395	      0.01106589
      0.56200000	     -1.05900233	      2.10630137	      1.09528765	     -0.63538386	      0.97416881	      0.28824593	     25.79843651	      1.27549377	     -1.03860959	    -24.19957545	      4.18789468	     -9.81770431	      5.40545311	     -3.16676699	      4.08523150	     -2.71240581	    -40.45971255	      1.72715831	     -0.48095920	     14.54672534	     -0.72679570	      1.12074560	      0.16294894
      0.56616667	     -1.01646527	      1.80719103	      1.05002827	     -0.62973229	      0.97425400	      0.28883936	     25.55332392	      1.66329403	     -0.97262306	    -24.50851589	      4.35749419	     -9.98457358	      5.29808916	     -2.30370834	      3.59284479	     -2.98722309	    -42.48209763	      0.59894100	     -0.55981797	     14.76163423	     -0.76560477	      1.47180129	      0.30109037
      0.57033333	     -0.97671986	      1.50455784	      1.00324177	     -0.62411258	      0.97435300	      0.28942663	     25.30138269	      2.05293689	     -0.91845936	    -24.79702734	      4.55039073	    -10.12028434	      5.19238557	     -1.42869076	      3.09718792	     -3.22873137	    -44.48284538	     -0.52827967	     -0.67277660	     14.90644010	     -0.80575708	      1.82562236	      0.43937241
      0.57450000	     -0.88282808	      1.20433257	      0.96259449	     -0.61848963	      0.97456070	      0.28997401	     24.96904927	      2.42401195	     -0.92513202	    -25.04451612	      4.80377280	    -10.04986117	      5.16753209	     -0.61725290	      2.60570712	     -3.43530775	    -46.42956108	     -1.68442919	     -0.85074427	     14.91776287	     -0.90984941	      2.17513449	      0.53807338
      0.57866667	     -0.88941635	      0.89951118	      0.89866041	     -0.61296181	      0.97461394	      0.29056530	     24.75012371	      2.82096399	     -0.86382507	    -25.29090064	      5.02152310	    -10.19250158	      5.09786714	      0.33246802	      2.10213876	     -3.66070059	    -48.39298771	     -2.73119592	     -1.02646759	     14.91401455	     -0.90582274	      2.53646244	      0.69968369
